<?xml version="1.0" standalone="no"?>
<!DOCTYPE svg PUBLIC "-//W3C//DTD SVG 20010904//EN"
 "http://www.w3.org/TR/2001/REC-SVG-20010904/DTD/svg10.dtd">
<svg version="1.0" xmlns="http://www.w3.org/2000/svg"
 width="300.000000pt" height="300.000000pt" viewBox="0 0 16 16"
 preserveAspectRatio="xMidYMid meet">
<metadata>
Created by potrace 1.13, written by Peter Selinger 2001-2015
</metadata>
<g transform="translate(0.000000,300.000000) scale(0.100000,-0.100000)" stroke="none">
<path d="M2858 2509 c-91 -48 -241 -170 -323 -263 -150 -169 -264 -344 -465
-712 -158 -291 -139 -270 -183 -197 -92 152 -205 215 -382 214 -160 0 -293
-49 -447 -166 -164 -123 -348 -359 -476 -607 -19 -37 -44 -76 -56 -87 -27 -25
-139 -48 -324 -65 -78 -7 -145 -16 -148 -19 -20 -20 126 -106 221 -131 147
-40 295 -33 731 34 414 63 618 72 897 39 82 -9 101 -9 112 2 16 16 202 334
240 410 20 39 23 54 15 64 -29 34 -301 58 -501 44 -246 -17 -430 -68 -711
-197 -335 -153 -361 -150 -88 11 381 225 565 291 847 304 l133 6 40 74 c79
147 145 216 270 285 82 46 153 108 185 162 13 23 43 115 65 204 22 89 48 181
57 205 42 107 153 239 306 363 44 35 75 64 70 64 -4 0 -42 -19 -85 -41z"/>
</g>
</svg>
